<?xml version="1.0" standalone="no"?>
<!DOCTYPE svg PUBLIC "-//W3C//DTD SVG 20010904//EN"
 "http://www.w3.org/TR/2001/REC-SVG-20010904/DTD/svg10.dtd">
<svg version="1.0" xmlns="http://www.w3.org/2000/svg"
 width="700.000000pt" height="152.000000pt" viewBox="0 0 700.000000 152.000000"
 preserveAspectRatio="xMidYMid meet">

<g transform="translate(0.000000,152.000000) scale(0.100000,-0.100000)"
fill="#000000" stroke="none">
<path d="M780 1330 c0 -162 -2 -190 -15 -190 -8 0 -15 -9 -15 -20 0 -14 -7
-20 -22 -20 -42 0 -142 -56 -185 -102 -47 -52 -66 -85 -82 -145 -9 -32 -17
-43 -31 -43 -11 0 -20 -4 -20 -10 0 -6 -75 -10 -205 -10 -173 0 -205 -2 -205
-15 0 -9 14 -16 38 -20 150 -22 280 -69 385 -139 121 -80 237 -225 288 -360
13 -33 25 -54 27 -47 5 16 -61 154 -101 210 -51 71 -51 73 -2 46 26 -13 63
-27 82 -31 l35 -7 -2 -126 c-1 -69 -2 -165 -1 -213 l1 -88 45 0 45 0 0 213 0
213 54 17 c116 37 203 122 233 228 12 45 21 59 35 59 10 0 18 5 18 10 0 6 72
10 195 10 159 0 195 3 195 14 0 9 -18 16 -52 20 -119 15 -268 71 -364 136 -26
17 -48 29 -51 27 -4 -5 82 -63 127 -87 14 -8 66 -28 115 -46 l90 -33 -127 -1
c-107 0 -128 2 -128 15 0 8 -8 15 -19 15 -13 0 -24 16 -40 63 -12 34 -23 67
-24 74 -2 6 -33 43 -69 81 -36 39 -85 103 -109 142 -51 86 -109 249 -109 308
0 31 -4 42 -15 42 -13 0 -15 -28 -15 -190z m105 -120 c15 -30 43 -76 61 -102
19 -27 32 -48 30 -48 -2 0 -23 9 -47 20 -24 11 -54 20 -66 20 -16 0 -23 6 -23
20 0 11 -7 20 -15 20 -13 0 -15 21 -14 128 l0 127 23 -65 c12 -36 35 -90 51
-120z m-65 -245 l0 -165 170 0 170 0 0 -30 0 -30 -170 0 -170 0 0 -365 0 -365
-25 0 -25 0 0 365 0 365 -170 0 -170 0 0 30 0 30 170 0 170 0 0 165 0 165 25
0 25 0 0 -165z m94 105 c95 -36 181 -133 201 -227 l7 -33 -141 0 -141 0 0 140
c0 83 4 140 10 140 5 0 34 -9 64 -20z m-504 -325 c0 -8 8 -15 18 -15 13 0 23
-15 35 -56 10 -31 27 -70 39 -87 21 -29 20 -29 -33 10 -67 51 -160 98 -264
134 l-80 27 143 1 c120 1 142 -1 142 -14z m340 -165 l0 -139 -45 13 c-64 20
-129 60 -164 103 -28 34 -71 127 -71 153 0 6 57 10 140 10 l140 0 0 -140z"/>
<path d="M2128 950 c-104 -56 -144 -189 -88 -300 23 -45 45 -64 105 -91 56
-25 143 -23 208 4 l37 16 0 100 0 101 -75 0 c-73 0 -75 -1 -75 -25 0 -23 4
-25 45 -25 l45 0 0 -60 0 -59 -37 -10 c-55 -16 -81 -14 -129 10 -113 54 -120
215 -13 287 28 20 44 23 91 20 37 -3 64 -11 78 -23 19 -17 21 -17 40 0 28 25
26 32 -20 55 -53 27 -160 27 -212 0z"/>
<path d="M5091 948 c-141 -70 -145 -292 -7 -377 71 -44 193 -35 241 19 17 19
17 21 0 40 -18 19 -18 19 -47 -5 -97 -81 -238 -2 -238 134 0 52 38 120 80 142
46 25 110 25 143 -1 31 -25 39 -25 61 -1 13 14 14 20 4 28 -60 48 -164 57
-237 21z"/>
<path d="M5972 950 c-18 -11 -39 -35 -47 -53 -29 -70 10 -131 104 -166 70 -26
96 -51 87 -85 -13 -51 -112 -72 -146 -31 -17 20 -33 19 -54 -4 -20 -21 -11
-31 47 -56 46 -19 86 -19 136 1 49 20 74 56 75 110 1 56 -27 86 -116 120 -53
20 -72 32 -79 52 -23 59 67 106 128 67 23 -15 26 -15 44 1 26 23 24 31 -11 49
-42 22 -128 19 -168 -5z"/>
<path d="M6679 947 c-121 -64 -145 -244 -45 -343 145 -145 387 -25 363 181 -7
64 -52 133 -106 162 -61 32 -151 32 -212 0z m181 -45 c51 -27 82 -92 77 -160
-7 -91 -64 -146 -152 -146 -88 0 -145 55 -152 146 -8 101 58 178 152 178 22 0
56 -8 75 -18z"/>
<path d="M1880 755 l0 -205 25 0 25 0 0 205 0 205 -25 0 -25 0 0 -205z"/>
<path d="M2490 755 l0 -205 30 0 30 0 0 91 0 90 32 -3 c29 -3 37 -12 82 -90
48 -82 53 -88 84 -88 17 0 32 2 32 4 0 2 -25 44 -55 93 l-55 88 30 13 c74 30
90 131 30 185 -29 26 -35 27 -135 27 l-105 0 0 -205z m209 124 c32 -58 -9 -99
-99 -99 l-50 0 0 65 0 66 67 -3 c60 -3 69 -6 82 -29z"/>
<path d="M2850 755 l0 -205 140 0 140 0 0 25 c0 24 0 24 -112 27 l-113 3 0 65
0 65 98 3 c96 3 97 3 97 27 0 25 0 25 -100 25 l-100 0 0 60 0 59 108 3 c102 3
107 4 110 26 3 22 3 22 -132 22 l-136 0 0 -205z"/>
<path d="M3330 795 c0 -152 -2 -167 -20 -185 -27 -27 -56 -25 -85 6 -17 18
-30 24 -44 19 -54 -17 15 -95 84 -95 14 0 41 7 61 15 55 23 64 57 64 245 l0
160 -30 0 -30 0 0 -165z"/>
<path d="M3527 763 c-48 -109 -87 -201 -87 -205 0 -5 13 -8 29 -8 25 0 31 6
49 50 l21 50 99 0 99 0 21 -50 c19 -45 24 -50 53 -50 24 0 30 3 25 16 -3 9
-43 101 -87 205 -77 179 -83 189 -108 189 -26 0 -32 -11 -114 -197z m152 32
c17 -44 31 -83 31 -87 0 -5 -34 -8 -76 -8 -42 0 -74 3 -72 8 2 4 19 46 38 94
19 48 38 84 41 80 3 -4 20 -43 38 -87z"/>
<path d="M4050 755 l0 -205 83 0 c94 0 140 11 188 43 97 65 115 198 42 296
-41 53 -91 71 -210 71 l-103 0 0 -205z m214 141 c52 -22 80 -70 81 -137 0 -99
-57 -150 -173 -152 l-67 -2 -3 153 -3 152 66 0 c36 0 81 -6 99 -14z"/>
<path d="M4490 755 l0 -206 138 3 c133 3 137 4 140 25 3 22 1 22 -110 25
l-113 3 0 65 0 65 98 3 c96 3 97 3 97 27 0 25 0 25 -100 25 l-100 0 0 60 0 60
105 0 105 0 0 25 0 25 -130 0 -130 0 0 -205z"/>
<path d="M5420 755 l0 -205 25 0 c25 0 25 1 25 90 l0 90 33 0 c31 0 36 -5 83
-87 47 -84 51 -88 87 -91 l37 -3 -60 95 c-42 68 -55 96 -44 96 9 0 31 15 50
34 38 38 45 85 20 135 -21 40 -56 51 -161 51 l-95 0 0 -205z m195 139 c10 -11
15 -29 13 -53 -4 -44 -32 -61 -105 -61 l-53 0 0 65 0 65 64 0 c46 0 69 -5 81
-16z"/>
<path d="M5770 755 l0 -205 30 0 30 0 0 205 0 205 -30 0 -30 0 0 -205z"/>
<path d="M6210 935 c0 -24 2 -25 70 -25 l70 0 0 -180 0 -180 25 0 25 0 0 180
0 180 65 0 c63 0 65 1 65 25 l0 25 -160 0 -160 0 0 -25z"/>
</g>
</svg>
